<svg width="1024" height="1024" viewBox="0 0 1024 1024" fill="none" xmlns="http://www.w3.org/2000/svg">
<rect width="1024" height="1024" rx="180" fill="white"/>
<rect width="1024" height="1024" rx="180" fill="#07101F"/>
<path d="M941 315V715H868.711L728.435 484.141H726.198V715H641V315H714.322L853.048 545.469H855.974V315H941Z" fill="white"/>
<path d="M408 537.753C409.889 513.595 409.861 503.044 403 459H502L550.208 537.753H408Z" fill="#B5D2FF"/>
<path d="M306.5 715C340.022 693.272 356.743 679.271 373.5 650.921H617V715H306.5Z" fill="#B5D2FF"/>
<path d="M386 391.006C367.072 354.656 351.824 337.454 317 312H617V391.006H386Z" fill="#B5D2FF"/>
<path d="M165.993 554V629.578H207.226C226.683 629.578 243.143 625.802 256.604 618.25C270.179 610.568 280.416 598.133 287.317 580.945C294.33 563.628 299.837 540.581 299.837 511.805C299.837 483.029 294.33 460.112 287.317 443.055C280.303 425.867 269.952 413.497 256.265 405.945C242.69 398.263 225.948 394.422 206.038 394.422L165.993 393.639H82V312H210.281C245.688 312 276.174 320.008 301.74 336.023C327.419 351.909 347.215 374.826 361.129 404.773C375.043 434.591 382 470.268 382 511.805C382 553.471 375.043 589.279 361.129 619.227C347.328 649.174 327.588 672.156 301.909 688.172C276.231 704.057 245.744 712 210.45 712H82V458.5H165.993V554Z" fill="white"/>
</svg>
